<svg xmlns="http://www.w3.org/2000/svg" xmlns:xlink="http://www.w3.org/1999/xlink" viewBox="0 0 472.51 130.67">
    <defs>
        <style>.cls-1{fill:url(#linear-gradient);}</style>
        <linearGradient id="linear-gradient" x1="-5.77" y1="78.19" x2="558.26" y2="78.19" gradientUnits="userSpaceOnUse">
            <stop offset="0" stop-color="#51f282" />
            <stop offset="0.15" stop-color="#59d481" />
            <stop offset="0.47" stop-color="#6e8980" />
            <stop offset="0.94" stop-color="#8f117d" />
            <stop offset="1" stop-color="#94007d" />
            <stop offset="1" stop-color="#8c55f1" />
            <stop offset="1" stop-color="#8f4df7" />
        </linearGradient>
    </defs>
    <g id="Layer_2" data-name="Layer 2">
        <g id="Layer_1-2" data-name="Layer 1">
            <path class="cls-1" d="M42.3,6.31A47,47,0,0,1,58.75,8.83a44.46,44.46,0,0,1,12.49,7.22L61.78,27.4a31,31,0,0,0-8.73-5.07,28.37,28.37,0,0,0-10.14-1.78A21.35,21.35,0,0,0,31.22,24q-5.37,3.42-8.56,10.91T19.47,54.66q0,12,3.09,19.47T31,85A21.89,21.89,0,0,0,43.18,88.5a25.14,25.14,0,0,0,12-2.55,58,58,0,0,0,8.59-5.57l8.73,11.14a44.28,44.28,0,0,1-12.29,8.33q-7.38,3.5-17.92,3.49a42.42,42.42,0,0,1-21.73-5.57,38.5,38.5,0,0,1-15-16.42Q0,70.51,0,54.66,0,39.08,5.64,28.3A39.8,39.8,0,0,1,20.88,11.92,41.67,41.67,0,0,1,42.3,6.31Z" />
            <path class="cls-1" d="M103.61,0V38A27.83,27.83,0,0,1,125,28.07q9.79,0,14.77,5.54t5,15.61v52H126.64V53.31q0-6.37-1.91-9c-1.28-1.76-3.49-2.65-6.62-2.65a12,12,0,0,0-5.4,1.28,19.93,19.93,0,0,0-4.87,3.42,31.6,31.6,0,0,0-4.23,4.9v50H85.48V1.81Z" />
            <path class="cls-1" d="M223.2,82.32q0,4.09,1.17,6a7.12,7.12,0,0,0,3.79,2.78l-3.82,12.09a26,26,0,0,1-9.84-2.82,14.47,14.47,0,0,1-6.21-6.78,24.84,24.84,0,0,1-10.21,7.35,34.7,34.7,0,0,1-12.89,2.45q-10.87,0-17.29-6.21t-6.41-16.08q0-11.42,8.93-17.56t25.31-6.15h9.81V53.65q0-6.24-3.87-9.06t-11-2.82a49,49,0,0,0-8.63.94,76.92,76.92,0,0,0-10.58,2.75L167.13,33.1a78.08,78.08,0,0,1,13.73-3.79,71.93,71.93,0,0,1,12.59-1.24q15.11,0,22.43,6.38t7.32,18.06Zm-32.1,7.86A16.77,16.77,0,0,0,199.19,88a15.8,15.8,0,0,0,6.35-6.31V68h-6.79q-9.74,0-14.06,3.12a10.31,10.31,0,0,0-4.33,8.9c0,3.22.91,5.72,2.75,7.49S187.61,90.18,191.1,90.18Z" />
            <path class="cls-1" d="M308.34,97.3a40.17,40.17,0,0,1-9.7,4.29,41.61,41.61,0,0,1-12.33,1.75q-13.15,0-19.74-6.82T260,78.36V43H244.61V30.15H260V14.5l18.13-2.15v17.8h23.37L299.68,43H278.12V78.29c0,3.68.87,6.35,2.62,8s4.59,2.52,8.53,2.52a25.7,25.7,0,0,0,7-.91,28.4,28.4,0,0,0,5.81-2.32Z" />
            <path class="cls-1" d="M388.91,97.3a40,40,0,0,1-9.7,4.29,41.5,41.5,0,0,1-12.32,1.75q-13.17,0-19.74-6.82t-6.58-18.16V43H325.19V30.15h15.38V14.5l18.13-2.15v17.8h23.36L380.25,43H358.7V78.29c0,3.68.87,6.35,2.62,8s4.58,2.52,8.52,2.52a25.77,25.77,0,0,0,7-.91,28.63,28.63,0,0,0,5.81-2.32Z" />
            <path class="cls-1" d="M472.51,30.15,448.4,101.39a52.18,52.18,0,0,1-7.72,15.08,34.06,34.06,0,0,1-12,9.9,45.69,45.69,0,0,1-17.63,4.3l-2.22-13.1a42.17,42.17,0,0,0,11.45-3,18.38,18.38,0,0,0,6.92-5.24,31.35,31.35,0,0,0,4.47-8.09h-6.18L402.27,30.15h19.21l15.85,59.09,16.58-59.09Z" />
        </g>
    </g>
</svg>