<svg xmlns="http://www.w3.org/2000/svg" height="24px" viewBox="0 0 24 24" width="24px" fill="#F04747" class="close">
    <path d="M0 0h24v24H0V0z" fill="none" />
    <path d="M18.3 5.71c-.39-.39-1.02-.39-1.41 0L12 10.59 7.11 5.7c-.39-.39-1.02-.39-1.41 0-.39.39-.39 1.02 0 1.41L10.59 12 5.7 16.89c-.39.39-.39 1.02 0 1.41.39.39 1.02.39 1.41 0L12 13.41l4.89 4.89c.39.39 1.02.39 1.41 0 .39-.39.39-1.02 0-1.41L13.41 12l4.89-4.89c.38-.38.38-1.02 0-1.4z" />
    <style>
        .close {
            transition: all 0.3 ease-in-out;
        }
        .close:hover {
            animation: spin 350ms linear forwards;
            animation-iteration-count: 1;
        }
        @keyframes spin {
            from {
                transform:rotate(0deg);
            }
            to {
                transform:rotate(360deg) scale(1.3);
                
            }
        }
    </style>
</svg>