<svg xmlns="http://www.w3.org/2000/svg" viewBox="0 0 64 64" width="48px" height="48px">
    <linearGradient id="hqEyq1MoOZcKEuIoC6UA6a" x1="32" x2="32" y1="50" y2="14" gradientUnits="userSpaceOnUse">
        <stop offset="0" stop-color="#e6abff"/>
        <stop offset="1" stop-color="#6dc7ff"/>
    </linearGradient>
    <path fill="url(#hqEyq1MoOZcKEuIoC6UA6a)" d="M48,29h-1.3c-0.39-1.91-1.15-3.69-2.19-5.27l0.85-0.85c0.82-0.82,0.82-2.15,0-2.97 l-1.27-1.27c-0.82-0.82-2.15-0.82-2.97,0l-0.85,0.85c-1.58-1.04-3.36-1.8-5.27-2.19V16c0-1.1-0.9-2-2-2h-2c-1.1,0-2,0.9-2,2v1.3 c-1.91,0.39-3.69,1.15-5.27,2.19l-0.85-0.85c-0.82-0.82-2.15-0.82-2.97,0l-1.27,1.27c-0.82,0.82-0.82,2.15,0,2.97l0.85,0.85 c-1.04,1.58-1.8,3.36-2.19,5.27H16c-1.1,0-2,0.9-2,2v2c0,1.1,0.9,2,2,2h1.3c0.39,1.91,1.15,3.69,2.19,5.27l-0.85,0.85 c-0.82,0.82-0.82,2.15,0,2.97l1.27,1.27c0.82,0.82,2.15,0.82,2.97,0l0.85-0.85c1.58,1.04,3.36,1.8,5.27,2.19V48c0,1.1,0.9,2,2,2h2 c1.1,0,2-0.9,2-2v-1.3c1.91-0.39,3.69-1.15,5.27-2.19l0.85,0.85c0.82,0.82,2.15,0.82,2.97,0l1.27-1.27c0.82-0.82,0.82-2.15,0-2.97 l-0.85-0.85c1.04-1.58,1.8-3.36,2.19-5.27H48c1.1,0,2-0.9,2-2v-2C50,29.9,49.1,29,48,29z M32,43c-6.08,0-11-4.92-11-11 s4.92-11,11-11s11,4.92,11,11S38.08,43,32,43z"/>
    <linearGradient id="hqEyq1MoOZcKEuIoC6UA6b" x1="32" x2="32" y1="25" y2="39" gradientUnits="userSpaceOnUse">
        <stop offset="0" stop-color="#6dc7ff"/>
        <stop offset="1" stop-color="#e6abff"/>
    </linearGradient>
    <path fill="url(#hqEyq1MoOZcKEuIoC6UA6b)" d="M32,39c-3.859,0-7-3.14-7-7s3.141-7,7-7s7,3.14,7,7S35.859,39,32,39z M32,28 c-2.206,0-4,1.794-4,4s1.794,4,4,4s4-1.794,4-4S34.206,28,32,28z"/>
    <linearGradient id="hqEyq1MoOZcKEuIoC6UA6c" x1="32" x2="32" y1="55" y2="9" gradientUnits="userSpaceOnUse">
        <stop offset="0" stop-color="#c822ff"/>
        <stop offset="1" stop-color="#1a6dff"/>
    </linearGradient>
  
</svg>